<svg width="50" height="50" viewBox="0 0 50 50" fill="none" xmlns="http://www.w3.org/2000/svg">
<g id="sugar free" clip-path="url(#clip0_11_539)">
<path id="Vector" d="M50 23.3456V26.187L49.6914 28.669C45.3926 57.4215 4.28615 56.7961 0.328143 28.669L0.0185723 26.187C0.0605644 25.2483 -0.0390449 24.2813 0.0185723 23.3456C0.908221 8.86772 14.3086 -1.72608 28.5586 0.233622C39.9981 1.80747 49.2881 11.7611 50 23.3456ZM8.31838 39.6113L8.56252 39.5161C10.3447 38.0061 11.9883 35.69 13.7822 34.2703C14.5947 33.6272 15.6387 33.6655 16.1299 34.6591C16.502 35.4101 16.2168 35.9374 15.7373 36.5275C14.3438 38.2456 12.0147 39.8499 10.7061 41.5701C10.6494 41.6437 10.5313 41.6918 10.5615 41.8136C17.5488 47.9224 28.0283 49.0378 36.0703 44.2956C44.0723 39.577 48.418 29.75 46.6533 20.5808C45.9502 16.9265 44.1338 13.3419 41.6406 10.6134C39.6172 12.3375 37.9024 14.5289 35.8184 16.2117C34.3877 16.7576 33.1553 15.2957 34.0069 14.0026L39.3652 8.60066L39.416 8.3503C37.6182 6.89525 35.626 5.60219 33.5 4.68125C15.417 -3.14972 -3.35936 16.1037 4.88185 34.0925C5.79103 36.0768 7.0342 37.8608 8.3174 39.6113H8.31838Z" fill="black"/>
<path id="Vector_2" d="M20.9863 7.68763C21.2822 7.66407 21.5576 7.76127 21.8203 7.87908C24.2217 9.4765 27.0527 10.7038 29.4316 12.2914C29.8955 12.6006 30.3056 12.8765 30.3799 13.4951L30.4248 21.975L37.4775 26.0672C37.9082 26.3814 38.1455 26.6141 38.2412 27.1629C38.124 30.1045 38.5469 33.4348 38.289 36.3341C38.2392 36.8878 38.0068 37.4229 37.5351 37.7332L29.331 42.4322L28.289 42.3467L20.0312 37.5054L19.7158 37.0381L19.5918 28.2459L12.3838 24.0162C12.0185 23.7914 11.8721 23.3722 11.7558 22.9804C11.9014 20.0477 11.4824 16.7812 11.7295 13.8868C11.791 13.1662 12.0019 12.8078 12.5781 12.3876C15.1601 11.2241 17.7812 9.01505 20.3183 7.90854C20.5088 7.82508 20.7861 7.7053 20.9863 7.68861V7.68763ZM25.8877 13.8387L25.7265 13.5609L21.1387 10.9198L16.2246 13.6453L21.0566 16.5495L25.8877 13.8387ZM22.5683 24.8154L27.4492 21.925V16.2903L22.5683 19.1808V24.8154ZM19.6396 24.8154V19.1808L14.7588 16.3885V21.925L19.6396 24.8154ZM24.1308 27.4595L28.9463 30.1889L33.5351 27.5439L33.6963 27.3151L28.9629 24.5552L24.1904 27.2582L24.1299 27.4585L24.1308 27.4595ZM27.4492 38.4362V32.8015L22.5683 30.0092V35.5457L27.4492 38.4362ZM35.2597 30.0092L30.3789 32.8015V38.4362L35.2597 35.692V30.0083V30.0092Z" fill="black"/>
</g>
<defs>
<clipPath id="clip0_11_539">
<rect width="50" height="50" fill="white"/>
</clipPath>
</defs>
</svg>
