<svg width="52" height="35" viewBox="0 0 52 35" fill="none" xmlns="http://www.w3.org/2000/svg">
<g id="vegetarian" clip-path="url(#clip0_2053_11)">
<path id="Vector" d="M31.265 20.3055C31.6652 22.0858 32.0257 24.1196 32.178 25.9438C32.238 26.6557 32.4167 28.6335 32.2593 29.205C32.1679 29.5384 31.0426 30.4368 30.808 30.8131C30.2108 30.2383 29.6999 29.5571 29.1332 28.9538C28.9372 23.4318 27.8464 17.4776 24.9336 12.8463C20.2455 5.39154 11.118 3.37646 3.24188 3.49383C3.0875 3.61011 3.13422 4.85075 3.14234 5.14802C3.31297 10.8894 4.42203 17.4611 7.4882 22.2471C11.7772 28.9417 19.5802 31.2222 26.7983 31.4734C27.4148 32.1283 29.7162 34.7379 30.3509 34.8674C29.3556 35.022 28.2648 35.0143 27.2502 34.9825C19.7448 34.7467 11.3141 32.4289 6.24102 26.1105C2.88133 21.9246 1.22789 16.4399 0.4225 11.0375L0 7.38687V1.91315C0.335156 0.284193 1.19641 0.135009 2.58375 0.0472544C5.50977 -0.138128 9.11727 0.2458 11.9966 0.853504C22.3234 3.03422 28.7696 9.19462 31.265 20.3066V20.3055Z" fill="#C2D831"/>
<path id="Vector_2" d="M31.265 20.3055C31.7403 19.3555 32.2166 18.4067 32.8057 17.5335C36.5249 12.0203 43.2605 10.2389 49.2832 10.4506C50.6716 10.4999 51.5521 10.365 51.9716 12.0938C51.9076 13.4551 52.0579 14.9041 51.9716 16.2545C51.1905 28.4645 44.0385 34.9046 32.8423 34.9803C32.2847 34.9836 30.8262 34.9638 30.3499 34.8662C29.7151 34.7368 27.4137 32.1272 26.7973 31.4723C22.7205 27.1416 18.6936 22.7023 14.7418 18.2542C14.1751 16.7042 15.4385 15.3418 16.8756 15.9528C21.0448 20.1716 25.0565 24.6153 29.1322 28.9548C29.6989 29.5581 30.2108 30.2382 30.8069 30.8141C31.0416 30.4379 32.1659 29.5395 32.2583 29.206C32.4157 28.6345 32.2369 26.6567 32.177 25.9448C32.0247 24.1206 31.6641 22.0869 31.264 20.3066L31.265 20.3055ZM48.8262 13.8456C45.0988 13.8423 40.9256 14.5729 37.831 16.9313C34.2286 19.6769 32.9002 24.3992 32.4837 28.9537L39.586 21.3421C41.0272 20.1662 42.8421 21.8554 41.9453 23.5579L34.8187 31.3615C37.8056 31.0884 40.9053 30.27 43.3773 28.3866C47.6196 25.1528 48.7114 19.1339 48.8272 13.8456H48.8262Z" fill="#93C955"/>
</g>
<defs>
<clipPath id="clip0_2053_11">
<rect width="52" height="35" fill="white"/>
</clipPath>
</defs>
</svg>
